<svg xmlns="http://www.w3.org/2000/svg" viewBox="0 0 635.33 421.75"><title>rpl-logo</title><path d="M516.87,0h59.45V7.25q0,121.52,0,243a69,69,0,0,0,1.09,13.94c3.25,15.54,15.54,23.69,31.22,21,3.83-.67,7.58-1.8,11.92-2.85,4.76,15.94,9.51,31.83,14.73,49.32-9.05,2.45-17.84,5.29-26.84,7.13a91.82,91.82,0,0,1-43.43-1.13c-29.24-8.1-46.75-30.16-48-60.49-.12-2.81-.14-5.63-.14-8.44q0-131.07,0-262.13Z" style="fill:#3d5362"/><path d="M59,333.66H0V89.14H44.05l7.12,25.68C78.86,89,112.22,82.08,148.32,82v56.3c-9.95,1.07-19.71,1.44-29.16,3.33A121.7,121.7,0,0,0,93,149.71C70.32,160,59,178.13,59,203.16Q59,265,59,326.85Z" style="fill:#3d5362"/><path d="M463.17,161.35C433.91,83.6,336.41,49.46,265.43,92.48a152.12,152.12,0,0,0-36.29,30.08L240.32,89c-14.9,0-29.37.7-43.91.7,0,.06.13,92.07.19,121.67,0,1.54-.07,3.08-.07,4.64-.13,77,.38,122,.63,199,0,2.25.22,4.51.34,6.78h29.17c0-3.16,0-5.92,0-8.68-.24-74.15-.49-116.42-.69-190.57,0-5.85.18-11.73.56-17.57,3.93-61,57.71-107.25,117.59-101.27,61.36,6.12,105.61,61.22,98,122a109.1,109.1,0,0,1-86.58,93.87c-45.21,9.29-91.93-12.06-115.68-52.84-1-1.72-2.07-3.41-3.44-5.64V421.63h30.35V331.35a14,14,0,0,1,2.38.86c34.78,22.29,72.13,24.41,110,11.16C455.12,316.79,491.55,236.75,463.17,161.35Z" style="fill:#3d5362"/><path d="M433.23,212.37c.06,56.73-43,100.52-99.06,100.66s-98.84-43.77-98.54-100.89,42.75-100.41,98.42-100.33C390.08,111.89,433.16,155.57,433.23,212.37Zm-167.31.37c.18,41,29.33,71,68.68,70.76,39.11-.28,68.56-31,68.43-71.4-.13-40.57-30.19-71.06-69.78-70.76C294.43,141.62,265.73,172.06,265.92,212.74Z" style="fill:#e9322a"/></svg>